PathFileType	4	(X/Y/Z)	61_2_75_p0_0-285.trc
DataRate	CameraRate	NumFrames	NumMarkers	Units	OrigDataRate	OrigDataStartFrame	OrigNumFrames
59.0	59.0	5	27	m	59.0	71	286
Frame#	Time	RHip			RKnee			RAnkle			RBigToe			RSmallToe			RHeel			LHip			LKnee			LAnkle			LBigToe			LSmallToe			LHeel			Neck			Head			Nose			RShoulder			RElbow			RWrist			RThumb			RIndex			RPinky			LShoulder			LElbow			LWrist			LThumb			LIndex			LPinky			
		X1	Y1	Z1	X2	Y2	Z2	X3	Y3	Z3	X4	Y4	Z4	X5	Y5	Z5	X6	Y6	Z6	X7	Y7	Z7	X8	Y8	Z8	X9	Y9	Z9	X10	Y10	Z10	X11	Y11	Z11	X12	Y12	Z12	X13	Y13	Z13	X14	Y14	Z14	X15	Y15	Z15	X16	Y16	Z16	X17	Y17	Z17	X18	Y18	Z18	X19	Y19	Z19	X20	Y20	Z20	X21	Y21	Z21	X22	Y22	Z22	X23	Y23	Z23	X24	Y24	Z24	X25	Y25	Z25	X26	Y26	Z26	X27	Y27	Z27	
71	1.2033898305084745	0.2987332712607331	0.5636507646001322	0.9322727896315738	0.31768655241588817	0.7447748985744579	1.3545663593731851	0.35691334379535067	0.8788108323322522	1.7720070480621168	0.304254926234778	0.7341433517536448	1.8291717418623703	0.3713604947993541	0.7091274356336054	1.8026910418716748	0.351019999852021	0.9045871029293103	1.8008877492414912	0.08342600170648327	0.5897820231292524	0.9526351091526389	0.09675146877050153	0.7405574180163019	1.367345814672553	0.10955203929355792	0.8442757860599354	1.7831934700408534	0.16645175722687774	0.7408034534736865	1.842304676630531	0.09128709367642644	0.7390416100601773	1.8275279678244616	0.12074457345562271	0.8698387302698197	1.8075593416369764	0.19187860709760218	0.5133379800948282	0.43629281226616057	0.21574604413310955	0.3929923496983056	0.2017433518752639	0.20865377731370657	0.3497818776611368	0.3470692735989593	0.35337415399295136	0.5023872294889832	0.5137787366631354	0.3978821057396055	0.5895003156494646	0.7556916640901596	0.39223473065654024	0.5712606982774909	0.9931108449067874	0.34177350875773604	0.5193910127006942	1.0947159445711876	0.35342067566526847	0.5207403581313997	1.1131160558563657	0.3824696404055263	0.6097731117126571	1.1168250363633305	0.04500256215842947	0.46250231321308527	0.520977690079362	-0.006487281712691902	0.5585461152945533	0.7831729565096169	0.020329977741854098	0.5418858944968442	1.0087322205423406	0.07208383186437245	0.5572639661704991	1.1064693921592093	0.046340954600211856	0.5609933549221975	1.1449496653270506	0.018817652208167134	0.5392913870900229	1.136409596891417
72	1.2203389830508475	0.29902174610394183	0.5627047811282019	0.9282099629584181	0.31259449815421175	0.7390790010540912	1.3495820893836776	0.35671001070676395	0.8793765974508289	1.7810858301054961	0.3094739096594947	0.7630750860026497	1.8398038105012784	0.3777097095848109	0.7389757132864536	1.81820614896419	0.3515672593514839	0.9041802825528836	1.8063635505172213	0.08402339671705665	0.5888676890306548	0.9485809182348935	0.0968421539008089	0.7405492944527695	1.367031769830733	0.11379744698009774	0.8453605679207435	1.7871928411441793	0.1721508094460085	0.7294530653618071	1.8459452765417497	0.09105254013613312	0.739980324387427	1.828154842637542	0.12089605136627525	0.8697855994140254	1.8077678577048457	0.19368502559336648	0.5255859158753183	0.43523473205965696	0.21419973991135433	0.3820703121294995	0.20369749519885544	0.20896149725725977	0.35140548481046807	0.35032464102841804	0.35335874540289774	0.5022567759342623	0.5137538109177656	0.4002267215338244	0.6031822237599986	0.759568754020788	0.39172671985473556	0.5723177781104631	0.996957272888917	0.33784190926661	0.5171355332198199	1.0946025252049596	0.34957665793536424	0.5179206852500237	1.112905729225258	0.38263665109554434	0.609409202724939	1.1169075437266738	0.04034931834116879	0.48657188685153685	0.5197479230655316	0.0001404195103873092	0.5453473158972392	0.7821626675102581	0.026596955907104453	0.5296570641815117	1.0068482647487214	0.0723213867851869	0.5573982817913339	1.1067568264094756	0.05019935197886703	0.562084177633496	1.14508250012237	0.0194731086471865	0.5378930196266885	1.140510151025215
73	1.2372881355932204	0.29905046222771897	0.5628358856813256	0.9282708977040736	0.3134668424272223	0.7423984375873272	1.3542752347541336	0.35774665074674117	0.8775694369668181	1.7759720329371202	0.3096897629462567	0.7637413745244092	1.8404788288164975	0.37815761297692124	0.740246590913491	1.8189811139280616	0.35013037152518306	0.9020527774878561	1.7979764999292405	0.0834992715288876	0.5898236021709471	0.9524753958380642	0.09685893213956556	0.7404938277494867	1.3666932995141363	0.11380707207115845	0.8452715533698097	1.7870287364609225	0.16718618125295345	0.7443042763610866	1.8476093041219286	0.0911662966516242	0.7400977256664266	1.8281607158121427	0.12100146340730823	0.8694554452749819	1.8073616088768212	0.19372747958652423	0.5256056027529019	0.43522431093036634	0.21417110129212155	0.3820023211450237	0.20366438689691133	0.20928871016337386	0.3528081038150032	0.3535068572256913	0.3534066734026055	0.5023002222661228	0.5137326323204434	0.4005236274856673	0.6022516404773017	0.7557124410100877	0.39088490530326264	0.5700359047709322	0.9926624746577014	0.342548967411328	0.5041609164228392	1.0923692434803973	0.3496278196804015	0.5176484539766832	1.1129921769160707	0.38270472249074944	0.6092506781475953	1.1168910353038912	0.04042658547266208	0.4867090288583083	0.5198046730998697	0.00016424976035198606	0.5451470098030277	0.7821939247555717	0.026508935295964656	0.5296349336339353	1.0069540711728129	0.07235968653411495	0.5570615633505124	1.106809335101117	0.05028953069720481	0.5618586011133888	1.1452363783055968	0.019538319051051762	0.5376691369594699	1.140738141025994
74	1.2542372881355932	0.298977129110155	0.5628163264591443	0.9282054025212167	0.3126577142479468	0.7392546298566139	1.3496135194853098	0.35679709825082345	0.8791968002794176	1.7811392759823474	0.30964350709529126	0.7633129977624081	1.8401578734432154	0.37799372069785564	0.7392655329163988	1.8184904070767116	0.3517807286759373	0.9040330283715661	1.8063136448033636	0.083460902083662	0.5898803703407042	0.9523958889999798	0.0969006080060884	0.7407303799103017	1.3666626770973984	0.11379737797922244	0.8452016525489863	1.787090108472683	0.16626266847934212	0.7410787343779622	1.8426339406654977	0.09111318667845784	0.7399536865288247	1.8281544080299887	0.12102583870709226	0.8693317295790453	1.8074016874072734	0.19372044579484798	0.5256055595716201	0.4352769543161427	0.21406983734704887	0.3819517262722605	0.20361949990426326	0.2088921527245238	0.35138730826936115	0.35034803168890766	0.3534373230607561	0.5023164255253816	0.5137196134502757	0.4002897588997404	0.6031826273963515	0.7594234235789097	0.38685820589319686	0.5688393783271305	0.9928616178074661	0.3426458500706976	0.5039671912269942	1.092430861585587	0.3496320918475637	0.5174933245063431	1.1130835114323454	0.38268076522383354	0.6094618170155186	1.1168873812555242	0.04044260956420763	0.4866606608957949	0.5198427664677374	5.443924558067814e-05	0.5453302189391469	0.7823054505805837	0.026547563257679804	0.5295549582598441	1.0069318314420772	0.0783709307822901	0.5445920249315233	1.1043265013738608	0.05035798947623747	0.5615426795951937	1.1449665178546153	0.018537280974250437	0.5235539963231581	1.138537780846161
75	1.271186440677966	0.2939024569487144	0.5796343995148974	0.9378505258503207	0.31262396689959526	0.7396958471291335	1.34979629570072	0.3567054176041992	0.8793148677267543	1.780987496785327	0.3096331805737984	0.7629456931860207	1.8397689343010843	0.37790558640179794	0.7386939607681492	1.8180635393055877	0.351002237434386	0.9051485284740022	1.8024030384803822	0.08380953622496688	0.5923160034698016	0.9565851911612102	0.09690319716403899	0.7408085789641002	1.3670678486199628	0.11377656372908841	0.8451927127540299	1.7872422306084628	0.16624172747450977	0.7410587067696375	1.842525132836637	0.09171343757612958	0.7384053430372257	1.8319954237990104	0.12098579681008417	0.8694500837020072	1.8075453186703863	0.1936904316370466	0.525616027061171	0.43533524720361083	0.2097120994256364	0.3800115152847261	0.20411562396103972	0.2031949841550906	0.3384792309882782	0.35218123811467444	0.35343981120182166	0.5023199418987968	0.5137378840523097	0.40025889507577395	0.6031834381136943	0.7594581632059123	0.38639625009084927	0.5833028852327928	0.9981521399647265	0.3379405275928997	0.5171581793958883	1.0949019037042487	0.35213099676443693	0.5290042895606899	1.1146889895185161	0.3826315747569094	0.6099993729379432	1.1169626538366078	0.04035277759875921	0.4867656196840407	0.5198471816263608	4.495834822974879e-05	0.5454677921192593	0.7823532462294678	0.02044909199699296	0.5419335047615859	1.0088026699845773	0.0729482583148836	0.5591050129975389	1.1117361039291018	0.050383838271477854	0.561622652787271	1.1452010073361318	0.018583365656810742	0.5235730526465642	1.1389663274338795
